<svg xmlns="http://www.w3.org/2000/svg" viewBox="0 0 32 32" fill="none">
  <rect width="32" height="32" rx="8" fill="url(#grad)"/>
  <path d="M21.5 10.5C20.5 9.2 18.8 8.5 16.8 8.5C13.6 8.5 11.2 10.4 11.2 13C11.2 15.3 12.8 16.5 15.6 17.2L17.2 17.6C18.9 18 19.6 18.6 19.6 19.6C19.6 20.8 18.4 21.6 16.6 21.6C14.9 21.6 13.5 20.9 12.7 19.6L10.5 21C11.7 22.8 13.9 23.8 16.6 23.8C20.1 23.8 22.5 21.8 22.5 19C22.5 16.7 21 15.4 18 14.7L16.4 14.3C14.9 13.9 14.1 13.4 14.1 12.4C14.1 11.3 15.2 10.6 16.8 10.6C18.3 10.6 19.5 11.2 20.1 12.2L21.5 10.5Z" fill="white"/>
  <defs>
    <linearGradient id="grad" x1="0" y1="0" x2="32" y2="32" gradientUnits="userSpaceOnUse">
      <stop offset="0%" stop-color="#00C9A7"/>
      <stop offset="100%" stop-color="#0077B6"/>
    </linearGradient>
  </defs>
</svg>
